<svg width="15" height="15" viewBox="0 0 15 15" fill="none" xmlns="http://www.w3.org/2000/svg">
<g clip-path="url(#clip0_803_22947)">
<mask id="mask0_803_22947" style="mask-type:luminance" maskUnits="userSpaceOnUse" x="0" y="0" width="15" height="15">
<path d="M15 0H0V15H15V0Z" fill="white"></path>
</mask>
<g mask="url(#mask0_803_22947)">
<path d="M3.97494 1.30443C3.14235 0.486942 1.79259 0.486803 0.960162 1.30412C0.127732 2.12146 0.127888 3.44674 0.960475 4.26423L10.8042 13.9295C11.6368 14.7469 12.9866 14.7471 13.819 13.9298C14.6514 13.1124 14.6513 11.7872 13.8187 10.9697L3.97494 1.30443Z" fill="white"></path>
<path d="M1.13578 11.2165C0.338501 12.0666 0.393916 13.3902 1.25957 14.1729C2.12516 14.9555 3.4732 14.9008 4.27048 14.0507L13.7017 3.99438C14.499 3.14427 14.4436 1.82068 13.578 1.03804C12.7124 0.255397 11.3643 0.310095 10.567 1.16022L1.13578 11.2165Z" fill="#02AA69"></path>
</g>
</g>
<defs>
<clipPath id="clip0_803_22947">
<rect width="15" height="15" fill="white"></rect>
</clipPath>
</defs>
</svg>