<svg width="82" height="20" viewBox="0 0 82 20" fill="none" xmlns="http://www.w3.org/2000/svg">
<path d="M31.975 5.30443C31.1425 4.48694 29.7927 4.4868 28.9603 5.30412C28.1278 6.12146 28.128 7.44674 28.9606 8.26423L38.8043 17.9295C39.6369 18.7469 40.9867 18.7471 41.8191 17.9298C42.6515 17.1124 42.6514 15.7872 41.8188 14.9697L31.975 5.30443Z" fill="#02AA69"></path>
<path d="M29.1354 15.2165C28.3381 16.0666 28.3935 17.3902 29.2592 18.1729C30.1248 18.9555 31.4728 18.9008 32.2701 18.0507L41.7013 7.99438C42.4986 7.14427 42.4432 5.82068 41.5776 5.03804C40.712 4.2554 39.3639 4.31009 38.5666 5.16022L29.1354 15.2165Z" fill="#02AA69"></path>
<path d="M7.00061 18.4914C6.05578 18.4998 5.1138 18.389 4.19778 18.1616C3.38604 17.9629 2.63089 17.5857 1.98939 17.0585C1.3692 16.5435 0.882435 15.8376 0.529093 14.9408C0.175753 14.0439 -0.000611845 12.9296 1.59473e-06 11.5979C1.59473e-06 9.5181 0.521427 7.87769 1.56428 6.67667C2.60712 5.47564 4.1714 4.87545 6.25712 4.87605C6.5319 4.87605 6.89354 4.89713 7.34198 4.93929C7.81836 4.98882 8.28686 5.09531 8.73692 5.25641C9.23184 5.43605 9.67422 5.73236 10.0252 6.11923L9.25038 7.28559V0H13.0737V14.7618C13.0858 15.3475 12.9043 15.9212 12.5566 16.3971C12.1917 16.8799 11.7197 17.2748 11.1763 17.5518C10.5615 17.8698 9.90555 18.1045 9.22646 18.2493C8.49598 18.4109 7.74942 18.4921 7.00061 18.4914ZM7.15521 15.3211C7.77538 15.3211 8.27902 15.241 8.66609 15.0808C9.05317 14.9206 9.24704 14.6796 9.24762 14.358V8.44656C8.93377 8.27574 8.59966 8.14349 8.25296 8.05267C7.92036 7.96297 7.57732 7.91621 7.23245 7.91354C6.50923 7.91354 5.89794 8.0319 5.39858 8.26862C4.89925 8.50528 4.52474 8.90133 4.27508 9.45667C4.02479 10.015 3.89996 10.7679 3.90057 11.7153C3.90057 12.4598 4.00393 13.0979 4.21066 13.6298C4.40026 14.1454 4.7593 14.5844 5.23113 14.8775C5.70407 15.1726 6.34544 15.3199 7.15521 15.3193V15.3211Z" fill="#02AA69"></path>
<path d="M21.046 18.4914C19.7375 18.4914 18.5793 18.2252 17.5714 17.6927C16.5781 17.1734 15.7612 16.3801 15.2213 15.4106C14.6612 14.421 14.3815 13.2413 14.3821 11.8716C14.3821 9.64004 14.9459 7.91112 16.0734 6.68481C17.2009 5.4585 18.8154 4.84653 20.9171 4.84895C22.3636 4.84895 23.5291 5.15343 24.4138 5.76235C25.2983 6.37127 25.9482 7.25881 26.3636 8.42491C26.7764 9.5922 26.9746 11.0128 26.958 12.6866H17.0166L16.6034 10.2698H23.7807L23.212 11.4615C23.1955 10.0918 22.9976 9.12809 22.6185 8.57035C22.2394 8.01261 21.6207 7.73584 20.7625 7.74004C20.3022 7.73409 19.8496 7.85691 19.4577 8.0942C19.0706 8.33215 18.7691 8.72543 18.5532 9.27415C18.3373 9.82286 18.2302 10.5782 18.2321 11.5401C18.2321 12.7579 18.5293 13.6967 19.1237 14.3562C19.7181 15.0157 20.669 15.3452 21.9762 15.3446C22.459 15.3448 22.9401 15.2896 23.4099 15.1801C23.8612 15.0765 24.3056 14.9452 24.7404 14.7872C25.1538 14.6341 25.5069 14.499 25.7995 14.3815V17.6277C25.1272 17.897 24.431 18.1051 23.7199 18.2493C22.8395 18.4206 21.9434 18.5017 21.046 18.4914Z" fill="#02AA69"></path>
<path d="M47.3577 18.0395L42.9667 5.21027H47.1249L50.0437 15.5839L48.8291 15.6345L51.5896 5.21027H54.4311L57.1438 15.3291H56.1922L58.9823 5.21027H63.063L58.7238 18.0395H55.2359L52.6532 9.7457L53.2972 9.82247L50.8433 18.0441L47.3577 18.0395Z" fill="#FFFFFF"></path>
<path d="M64.1073 3.45675V0.540344H68.0851V3.45675H64.1073ZM64.1846 18.0397V5.38477H68.0334L68.0595 18.0397H64.1846Z" fill="#FFFFFF"></path>
<path d="M69.6091 6.29451C70.0249 6.08958 70.4552 5.91589 70.8976 5.77502C71.4737 5.5862 72.0603 5.42964 72.6541 5.3061C73.2908 5.17056 73.9327 5.06066 74.5793 4.97633C75.1747 4.89483 75.7758 4.85227 76.377 4.84894C77.549 4.84894 78.5476 4.99952 79.3734 5.30066C80.1986 5.60184 80.8322 6.07948 81.2725 6.73358C81.7112 7.39615 81.9305 8.2921 81.9305 9.42143V18.0396H78.0823V10.1794C78.0854 9.87769 78.0368 9.57753 77.9397 9.29133C77.852 9.01748 77.6968 8.76907 77.4879 8.56789C77.2795 8.36671 77.0236 8.21892 76.7431 8.13759C76.3587 8.01907 75.9571 7.96317 75.5544 7.97225C75.1527 7.97225 74.7527 8.01897 74.362 8.11138C74.0507 8.17589 73.7478 8.27374 73.4584 8.40323V18.0396H69.6091V6.29451Z" fill="#FFFFFF"></path>
</svg>