<svg width="15" height="15" viewBox="0 0 15 15" fill="none" xmlns="http://www.w3.org/2000/svg">

<g clip-path="url(#clip0_20031_62960)">
<path class="dx-mark" d="M3.97504 1.30443C3.14245 0.486941 1.79269 0.486802 0.960258 1.30412C0.127828 2.12146 0.127984 3.44674 0.960571 4.26423L10.8043 13.9295C11.6369 14.7469 12.9867 14.7471 13.8191 13.9298C14.6515 13.1124 14.6514 11.7872 13.8188 10.9697L3.97504 1.30443Z"></path>
<path d="M1.13539 11.2165C0.338112 12.0666 0.393527 13.3902 1.25918 14.1729C2.12477 14.9555 3.47281 14.9008 4.27009 14.0507L13.7013 3.99438C14.4986 3.14427 14.4432 1.82068 13.5776 1.03804C12.712 0.255397 11.3639 0.310095 10.5666 1.16022L1.13539 11.2165Z" fill="#02AA69"></path>
</g>
<defs>
<clipPath id="clip0_20031_62960">
<rect width="15" height="15" fill="white"></rect>
</clipPath>
</defs>
</svg>