<svg width="35" height="35" viewBox="0 0 35 35" fill="none" xmlns="http://www.w3.org/2000/svg">
<g opacity="0.3">
<path d="M17.501 4.99976C24.4044 4.99976 30.0008 10.5963 30.001 17.4998C30.001 24.4033 24.4045 29.9998 17.501 29.9998C10.5976 29.9996 5.00098 24.4032 5.00098 17.4998C5.00115 10.5965 10.5977 4.99993 17.501 4.99976Z" stroke="#DC6803" stroke-width="1.66667"></path>
</g>
<g opacity="0.1">
<path d="M16.667 0.833008H18.333C27.0775 0.833008 34.167 7.92248 34.167 16.667V18.333C34.167 27.0775 27.0775 34.167 18.333 34.167H16.667C7.92248 34.167 0.833008 27.0775 0.833008 18.333V16.667C0.833008 7.92248 7.92248 0.833008 16.667 0.833008Z" stroke="#DC6803" stroke-width="1.66667"></path>
</g>
<path d="M17.5013 14.1667V17.5001M17.5013 20.8334H17.5096M25.8346 17.5001C25.8346 22.1025 22.1037 25.8334 17.5013 25.8334C12.8989 25.8334 9.16797 22.1025 9.16797 17.5001C9.16797 12.8977 12.8989 9.16675 17.5013 9.16675C22.1037 9.16675 25.8346 12.8977 25.8346 17.5001Z" stroke="#DC6803" stroke-width="1.25" stroke-linecap="round" stroke-linejoin="round"></path>
</svg>