<svg width="48" height="48" viewBox="0 0 48 48" fill="none" xmlns="http://www.w3.org/2000/svg">
<path d="M13.1982 0.900391H32.3984C32.5438 0.900391 32.6833 0.957768 32.7861 1.06055L45.7373 14.0117C45.8402 14.1146 45.8984 14.2549 45.8984 14.4004V43.2002C45.8983 45.354 44.1519 47.0996 41.998 47.0996H13.1982C11.0445 47.0995 9.29893 45.354 9.29883 43.2002V4.7998C9.29893 2.64605 11.0445 0.900496 13.1982 0.900391Z" stroke="#D5D7DA" stroke-width="1.8"></path>
<path d="M32.3984 0.599609V9.59961C32.3984 12.2506 34.5475 14.3996 37.1984 14.3996H46.1984" stroke="#D5D7DA" stroke-width="1.8"></path>
<rect x="1.20312" y="21.3008" width="31.2" height="19.8" rx="2.4" fill="#079455"></rect>
<path d="M7.66832 26.9739L9.42827 29.9483H9.49645L11.2649 26.9739H13.3487L10.6854 31.3375L13.4084 35.7012H11.2862L9.49645 32.7225H9.42827L7.63849 35.7012H5.52486L8.25639 31.3375L5.57599 26.9739H7.66832ZM14.5163 35.7012V26.9739H16.3615V34.1799H20.103V35.7012H14.5163ZM26.0593 29.4838C26.0252 29.1401 25.8789 28.873 25.6204 28.6827C25.3619 28.4924 25.011 28.3972 24.5678 28.3972C24.2667 28.3972 24.0124 28.4398 23.805 28.525C23.5977 28.6074 23.4386 28.7225 23.3278 28.8702C23.2198 29.0179 23.1658 29.1855 23.1658 29.373C23.1602 29.5293 23.1928 29.6657 23.2638 29.7821C23.3377 29.8986 23.4386 29.9995 23.5664 30.0847C23.6942 30.1671 23.842 30.2395 24.0096 30.302C24.1772 30.3617 24.3562 30.4128 24.5465 30.4554L25.3306 30.6429C25.7113 30.7282 26.0607 30.8418 26.3789 30.9838C26.6971 31.1259 26.9727 31.3006 27.2056 31.508C27.4386 31.7154 27.619 31.9597 27.7468 32.2409C27.8775 32.5222 27.9442 32.8446 27.9471 33.2083C27.9442 33.7424 27.8079 34.2054 27.538 34.5975C27.271 34.9867 26.8846 35.2892 26.3789 35.5051C25.8761 35.7182 25.2695 35.8248 24.5593 35.8248C23.8548 35.8248 23.2411 35.7168 22.7184 35.5009C22.1985 35.285 21.7923 34.9654 21.4996 34.5421C21.2099 34.1159 21.0579 33.589 21.0437 32.9611H22.8292C22.8491 33.2537 22.9329 33.498 23.0806 33.6941C23.2312 33.8873 23.4315 34.0336 23.6815 34.133C23.9343 34.2296 24.2198 34.2779 24.538 34.2779C24.8505 34.2779 25.1218 34.2324 25.3519 34.1415C25.5849 34.0506 25.7653 33.9242 25.8931 33.7623C26.021 33.6003 26.0849 33.4142 26.0849 33.204C26.0849 33.008 26.0266 32.8432 25.9102 32.7097C25.7965 32.5762 25.6289 32.4625 25.4073 32.3688C25.1886 32.275 24.9201 32.1898 24.6019 32.1131L23.6516 31.8745C22.9158 31.6955 22.3349 31.4157 21.9087 31.035C21.4826 30.6543 21.271 30.1415 21.2738 29.4966C21.271 28.9682 21.4116 28.5066 21.6957 28.1117C21.9826 27.7168 22.3761 27.4086 22.8761 27.187C23.3761 26.9654 23.9442 26.8546 24.5806 26.8546C25.2283 26.8546 25.7937 26.9654 26.2766 27.187C26.7624 27.4086 27.1403 27.7168 27.4102 28.1117C27.68 28.5066 27.8192 28.964 27.8278 29.4838H26.0593Z" fill="white"></path>
</svg>