<svg width="34" height="32" viewBox="0 0 34 32" fill="none" xmlns="http://www.w3.org/2000/svg">
<path d="M11.4004 0.75H23.4004C23.4576 0.75 23.5123 0.773028 23.5527 0.813477L32.1875 9.44727C32.2278 9.48762 32.2499 9.54256 32.25 9.59961V28C32.25 29.7949 30.7949 31.25 29 31.25H11.4004C9.60547 31.25 8.15039 29.7949 8.15039 28V4C8.15039 2.20507 9.60547 0.75 11.4004 0.75Z" stroke="#D5D7DA" stroke-width="1.5"></path>
<path d="M23.4004 0.400024V5.60002C23.4004 7.80916 25.1913 9.60002 27.4004 9.60002H32.6004" stroke="#D5D7DA" stroke-width="1.5"></path>
<rect y="12.8" width="26" height="16" rx="2" fill="#079455"></rect>
<path d="M5.38636 17.5273L6.85298 20.006H6.9098L8.38352 17.5273H10.12L7.90057 21.1637L10.1697 24.8H8.40128L6.9098 22.3178H6.85298L5.36151 24.8H3.60014L5.87642 21.1637L3.64276 17.5273H5.38636ZM11.093 24.8V17.5273H12.6307V23.5323H15.7486V24.8H11.093ZM20.7122 19.6189C20.6838 19.3325 20.5618 19.1099 20.3464 18.9513C20.131 18.7927 19.8386 18.7134 19.4693 18.7134C19.2183 18.7134 19.0065 18.7489 18.8336 18.8199C18.6608 18.8886 18.5282 18.9845 18.4359 19.1076C18.3459 19.2307 18.301 19.3704 18.301 19.5266C18.2962 19.6568 18.3234 19.7705 18.3826 19.8675C18.4442 19.9646 18.5282 20.0486 18.6348 20.1197C18.7413 20.1883 18.8644 20.2487 19.0041 20.3008C19.1438 20.3505 19.2929 20.3931 19.4515 20.4286L20.1049 20.5848C20.4222 20.6559 20.7134 20.7506 20.9785 20.8689C21.2437 20.9873 21.4733 21.1329 21.6674 21.3057C21.8616 21.4786 22.0119 21.6822 22.1184 21.9165C22.2273 22.1509 22.283 22.4196 22.2853 22.7226C22.283 23.1677 22.1693 23.5536 21.9444 23.8803C21.7219 24.2046 21.3999 24.4568 20.9785 24.6367C20.5595 24.8143 20.054 24.903 19.4622 24.903C18.8751 24.903 18.3637 24.8131 17.9281 24.6331C17.4949 24.4532 17.1563 24.1869 16.9125 23.8341C16.671 23.479 16.5443 23.0399 16.5325 22.5167H18.0204C18.037 22.7605 18.1068 22.9641 18.2299 23.1275C18.3554 23.2884 18.5223 23.4104 18.7306 23.4932C18.9413 23.5737 19.1793 23.614 19.4444 23.614C19.7048 23.614 19.9309 23.5761 20.1227 23.5003C20.3168 23.4246 20.4672 23.3192 20.5737 23.1843C20.6802 23.0493 20.7335 22.8943 20.7335 22.7191C20.7335 22.5557 20.685 22.4184 20.5879 22.3072C20.4932 22.1959 20.3535 22.1012 20.1689 22.0231C19.9866 21.9449 19.7628 21.8739 19.4977 21.81L18.7058 21.6111C18.0926 21.462 17.6085 21.2288 17.2534 20.9116C16.8983 20.5943 16.7219 20.167 16.7243 19.6296C16.7219 19.1893 16.8391 18.8045 17.0758 18.4755C17.3149 18.1464 17.6428 17.8895 18.0595 17.7049C18.4761 17.5202 18.9496 17.4279 19.4799 17.4279C20.0197 17.4279 20.4908 17.5202 20.8933 17.7049C21.2981 17.8895 21.613 18.1464 21.8379 18.4755C22.0628 18.8045 22.1788 19.1857 22.1859 19.6189H20.7122Z" fill="white"></path>
</svg>